<?xml version="1.0" encoding="utf-8"?>
<!-- Generator: Adobe Illustrator 23.1.1, SVG Export Plug-In . SVG Version: 6.00 Build 0)  -->
<svg version="1.1" id="Layer_1" xmlns="http://www.w3.org/2000/svg" xmlns:xlink="http://www.w3.org/1999/xlink" x="0px" y="0px"
	 viewBox="0 0 635 540" style="enable-background:new 0 0 635 540;" xml:space="preserve">
<path d="M39.3,0.3C9.8,0.3,0,28.3,0,39.5c0,8,0,227.3,0,227.3s0,209.4,0,227.4c0,18.1,11.9,39.1,39.1,39.1s227.9,0,227.9,0
	s201.3,0,228.4,0c23.9,0,38.6-20,38.6-38.7c0-11.4,0-227.8,0-227.8s0-196.9,0-225S515.9,0.3,496.4,0.3c-8.4,0-227.9-0.2-227.9-0.2
	C74-0.1,42.4,0.3,39.3,0.3z M131.4,74.7c8.4,2.6,13.7,5.9,20.2,12.8c6.3,6.6,8.9,11.1,11.4,19.7c2.3,7.7,1.6,19.9-1.4,27.8
	c-9.6,24.9-38.7,36.8-62.4,25.5c-29.4-13.9-35.8-52.1-12.6-74.7C98.5,74.3,116.1,69.9,131.4,74.7z M385.2,195.4
	c4.5,0.8,12,2.8,16.7,4.5c28.5,10.3,43.7,31.6,50.9,71.4c2.2,11.7,2.2,13.9,2.2,98v86h-39.5H376l-0.6-78c-0.5-71-0.7-78.5-2.3-84
	c-2.8-9.3-6.6-16.2-11.3-20.6c-6.5-6-12.1-8.1-23.5-8.7c-22.3-1.1-36,5.8-43.8,22.3c-6.4,13.7-6.4,13.5-7,95l-0.5,74h-39.5H208
	l-0.3-127.8l-0.2-127.7H246h38.5v17.7v17.8l2.7-4c13.5-20.2,35.7-34.2,59-37.4C354.6,192.7,374.2,193.5,385.2,195.4z M158.3,327.5
	L158,455.3h-39.5H79l-0.3-127.8l-0.2-127.7h40h40L158.3,327.5z"/>
<path d="M581.3,470.5c-4.3,2.1-8.7,5.3-10.9,7.8c-14.6,16.7-11.4,42.5,6.6,54.6c7.3,4.8,14,6.5,23.5,5.9c27.2-1.8,42.3-32.7,27.4-56
	c-3.7-5.7-7.4-9-14.3-12.5c-4.3-2.3-6.7-2.8-15.1-3.1C588.6,466.8,588.4,466.9,581.3,470.5z M610.3,473.3
	c7.4,3.4,13.1,8.8,16.4,15.5c2.4,4.8,2.8,7,2.8,13.7c0,6.6-0.5,9-2.7,13.7c-11.7,25-46.6,25.2-58.8,0.3c-3.4-6.8-3.5-19.7-0.4-26.6
	C575.3,473.3,594.2,465.9,610.3,473.3z"/>
<path d="M585,503v19h2.5c2.5,0,2.5-0.1,2.5-8.5V505h3.4c3.1,0,3.7,0.6,8.7,8.5c4.7,7.4,5.7,8.5,8.2,8.5c3.2,0,3.4,0.6-3.4-9.7
	l-4.8-7.1l2.7-0.7c6.5-1.6,9.6-8.3,6.8-14.8c-2-4.8-4.5-5.7-16.7-5.7H585V503z M605.2,489.7c1,0.9,1.8,3,1.8,4.9
	c0,4.7-2.9,6.4-10.7,6.4H590v-6.5V488h6.7C601.5,488,603.9,488.5,605.2,489.7z"/>
</svg>
